<?xml version="1.0" encoding="UTF-8" standalone="no"?>
<svg
   aria-hidden="true"
   class="svg-icon iconItalic"
   width="18"
   height="18"
   viewBox="0 0 18 18"
   version="1.1"
   id="svg1"
   sodipodi:docname="hash.svg"
   inkscape:version="1.3.2 (091e20ef0f, 2023-11-25)"
   xmlns:inkscape="http://www.inkscape.org/namespaces/inkscape"
   xmlns:sodipodi="http://sodipodi.sourceforge.net/DTD/sodipodi-0.dtd"
   xmlns="http://www.w3.org/2000/svg"
   xmlns:svg="http://www.w3.org/2000/svg">
  <defs
     id="defs1" />
  <path
     style="opacity:1;stroke-width:24.2222;stroke-linecap:square;paint-order:stroke fill markers"
     d="m 13.949463,2.0417087 c 0,0 0.664304,0.00704 0.854464,0.00134 0.19016,-0.0057 0.924873,0.2384962 0.57664,0.9863413 -0.288846,0.6203095 -5.045042,11.035358 -5.4783833,11.984378 -0.4333415,0.949021 -0.7881247,0.945761 -1.3553087,0.945761 -0.567184,0 -0.3175392,0 -0.734375,0 -0.4168358,0 -0.7985231,-0.467356 -0.5770328,-0.951217 C 7.4569576,14.524452 12.479729,3.5512928 12.725807,3.0070042 13.022379,2.3510304 13.336114,2.0361844 13.949463,2.0417087 Z"
     id="path4"
     sodipodi:nodetypes="czszzzzsc" />
  <rect
     style="opacity:1;stroke-width:27.7591;stroke-linecap:square;paint-order:stroke fill markers"
     id="rect4"
     width="11.987322"
     height="2"
     x="2.002677"
     y="11.007812"
     rx="1"
     ry="1" />
  <rect
     style="opacity:1;stroke-width:27.7591;stroke-linecap:square;paint-order:stroke fill markers"
     id="rect5"
     width="11.987322"
     height="2"
     x="4.0100012"
     y="5.007813"
     rx="1"
     ry="1" />
  <path
     style="opacity:1;stroke-width:24.2222;stroke-linecap:square;paint-order:stroke fill markers"
     d="m 9.1764922,2.0417087 c 0,0 0.664304,0.00704 0.8544638,0.00134 0.19016,-0.0057 0.924873,0.2384962 0.57664,0.9863413 -0.288846,0.6203095 -5.0450418,11.035358 -5.4783831,11.984378 -0.4333415,0.949021 -0.7881247,0.945761 -1.3553087,0.945761 -0.567184,0 -0.3175392,0 -0.734375,0 -0.4168358,0 -0.7985231,-0.467356 -0.5770328,-0.951217 C 2.6839868,14.524452 7.7067582,3.5512928 7.9528362,3.0070042 8.2494082,2.3510304 8.5631432,2.0361844 9.1764922,2.0417087 Z"
     id="path1"
     sodipodi:nodetypes="czszzzzsc" />
</svg>
